# xmcd
#
# Track frame offsets: 
#        150
#        7138
#        23654
#        37901
#        55742
#        69997
#        84244
#        100189
#        119538
#        134730
#        149571
#        166143
#        185093
#        190848
#        212682
#
# Disc length: 3095 seconds
#
# Revision: 2
# Processed by: cddbd v1.5.2PL0 Copyright (c) Steve Scherf et al.
# Submitted via: ExactAudioCopyFreeDBPlugin 1.0
#
DISCID=d10c150f
DTITLE=Lyfe Jennings - Lyfe Change
DYEAR=2008
DGENRE=Soul
TTITLE0=Change The Game (Intro)
TTITLE1=Keep On Dreaming
TTITLE2=Warriors
TTITLE3=Never Never Land
TTITLE4=Brand New (feat. T.I.)
TTITLE5=It's Real
TTITLE6=Cops Up
TTITLE7=You Think You've Got It Bad (feat. Wyclef Jean)
TTITLE8=Wild, Wild, Wild
TTITLE9=Midnight Train
TTITLE10=Hmmm
TTITLE11=Old School (feat. Snoop Dogg)
TTITLE12=Us (Interlude)
TTITLE13=Will I Ever
TTITLE14=Baby I'm A Star (feat. Quan)
EXTD=
EXTT0=
EXTT1=
EXTT2=
EXTT3=
EXTT4=
EXTT5=
EXTT6=
EXTT7=
EXTT8=
EXTT9=
EXTT10=
EXTT11=
EXTT12=
EXTT13=
EXTT14=
PLAYORDER=
